<svg xmlns="http://www.w3.org/2000/svg" xmlns:xlink="http://www.w3.org/1999/xlink" x="0px" y="0px" width="2000px" height="1200px" viewBox="0 0 2000 1200" xml:space="preserve"> <g id="Livello_2"> </g> <g id="Livello_1"> <circle fill="#003862" cx="1000.733" cy="598.564" r="590.97"></circle> <g id="XMLID_1_"> <path fill="#FFFFFF" d="M1000.732,83.525c283.949,0,515.037,231.09,515.037,515.038c0,283.949-231.088,515.038-515.037,515.038 c-283.948,0-515.037-231.089-515.037-515.038C485.696,314.615,716.784,83.525,1000.732,83.525 M1000.732,22.535 c-318.51,0-576.029,258.196-576.029,576.028c0,317.832,258.196,576.029,576.029,576.029 c317.832,0,576.029-258.197,576.029-576.029C1576.762,280.731,1319.242,22.535,1000.732,22.535L1000.732,22.535z"></path> </g> <g> <path fill="#FFFFFF" d="M1223.514,710.986c-32.025,0-58.076,26.063-58.076,58.077c0,32.027,26.051,58.078,58.076,58.078 c32.016,0,58.071-26.051,58.071-58.078C1281.585,737.05,1255.529,710.986,1223.514,710.986L1223.514,710.986z M1223.514,786.149 c-9.426,0-17.084-7.666-17.084-17.086s7.658-17.079,17.084-17.079c9.421,0,17.079,7.659,17.079,17.079 S1232.935,786.149,1223.514,786.149L1223.514,786.149z M1223.514,786.149"></path> <path fill="#FFFFFF" d="M1217.949,469.582h-100.34c-7.55,0-13.666,6.123-13.666,13.666v266.458 c0,7.546,6.116,13.666,13.666,13.666h14.494c6.765,0,12.756-4.873,13.628-11.578c5.364-41.091,38.137-66.575,77.788-66.575 c39.646,0,72.424,25.484,77.783,66.575c0.877,6.712,6.862,11.578,13.633,11.578h14.479c7.539,0,13.661-6.12,13.661-13.666v-133.23 c0-3.211-1.124-6.313-3.184-8.767l-111.46-133.226C1225.836,471.381,1221.993,469.582,1217.949,469.582L1217.949,469.582z M1131.274,578.9v-68.325c0-7.539,6.116-13.666,13.667-13.666h60.19c4.051,0,7.899,1.804,10.494,4.921l56.933,68.326 c7.414,8.902,1.09,22.41-10.499,22.41h-117.118C1137.391,592.566,1131.274,586.449,1131.274,578.9L1131.274,578.9z M1131.274,578.9"></path> <path fill="#FFFFFF" d="M673.508,763.378h34.986c6.765,0,12.755-4.866,13.633-11.578c5.364-41.09,38.137-66.575,77.783-66.575 c39.652,0,72.424,25.485,77.789,66.575c0.873,6.712,6.858,11.578,13.627,11.578h171.624c7.545,0,13.667-6.122,13.667-13.661 V408.098c0-7.544-6.122-13.667-13.667-13.667H673.508c-7.55,0-13.666,6.123-13.666,13.667v341.619 C659.842,757.256,665.958,763.378,673.508,763.378L673.508,763.378z M673.508,763.378"></path> <path fill="#FFFFFF" d="M799.904,710.986c-32.02,0-58.072,26.063-58.072,58.077c0,32.027,26.052,58.078,58.072,58.078 c32.015,0,58.077-26.051,58.077-58.078C857.981,737.05,831.918,710.986,799.904,710.986L799.904,710.986z M799.904,786.149 c-9.419,0-17.078-7.666-17.078-17.086s7.659-17.079,17.078-17.079c9.425,0,17.084,7.659,17.084,17.079 S809.329,786.149,799.904,786.149L799.904,786.149z M799.904,786.149"></path> </g> </g> </svg>